<svg preserveAspectRatio="none" overflow="visible" style="display: block;" width="79.7518" height="32" viewBox="0 0 79.7518 32" fill="none" xmlns="http://www.w3.org/2000/svg">
<g id="Respect Manufacturing">
<path d="M62.0492 18.6615C63.5627 18.5925 65.4499 18.6197 66.7536 19.5083C66.7425 19.8202 66.7492 20.1661 66.7488 20.4807C65.3837 19.4009 63.6912 19.2278 62.0231 19.436C60.8536 19.5994 59.697 20.5664 59.1933 21.5955C57.9227 24.1913 57.9917 28.4994 60.3689 30.4601C61.6175 31.4903 63.617 31.472 65.1139 31.0089C65.9162 30.7813 66.2002 30.5793 66.927 30.1495C66.9396 30.3481 66.9846 30.8232 66.8472 30.9457C66.2919 31.4417 65.0873 31.8096 64.3826 31.9011C62.3792 32.1612 60.2775 31.9534 58.6141 30.7335C57.179 29.6811 56.3641 28.2369 56.0965 26.5096C55.8116 24.7238 56.1795 22.7712 57.2809 21.3052C58.5063 19.674 60.1014 18.9681 62.0492 18.6615Z" fill="#4D545C"/>
<path d="M26.1911 18.6615C27.37 18.572 29.1863 18.6216 30.1373 19.3848C30.1565 19.6316 30.1422 19.9629 30.1382 20.217C29.8447 20.1036 29.5677 19.9254 29.2773 19.794C28.1133 19.2672 26.0005 19.0484 24.985 19.9806C24.5892 20.344 24.4192 20.8522 24.4071 21.3746C24.3597 23.4291 26.7038 23.7729 28.1528 24.4416C28.8704 24.7493 29.5206 25.1285 30.0787 25.6766C31.3699 26.9451 31.2057 29.5344 29.9123 30.7465C29.0181 31.5844 27.6511 32.0172 26.4318 31.985C24.839 31.995 23.9835 31.8814 22.5368 31.0902C22.5257 30.851 22.5131 30.5328 22.5946 30.3109C22.612 30.2955 22.6326 30.2771 22.6562 30.2562C23.1377 30.4415 23.5602 30.7069 24.0416 30.9133C25.5035 31.5398 28.6781 31.6495 29.0943 29.6099C29.6759 26.7599 25.8087 26.4685 24.1497 25.2564C23.3438 24.7026 22.8302 23.9985 22.6889 23.0184C22.3247 20.4919 23.8557 19.0662 26.1911 18.6615Z" fill="#4D545C"/>
<path d="M68.8542 18.8484C70.0021 18.8111 71.261 18.8343 72.4176 18.8319L79.7518 18.8378C79.7415 19.0714 79.7399 19.2865 79.7407 19.5204C78.4516 19.3867 76.6457 19.5903 75.357 19.4734L75.3554 30.2614C75.355 30.7196 75.3362 31.3936 75.3842 31.8349C74.6598 31.7741 73.8353 31.8278 73.0876 31.7979C73.031 31.3967 73.066 30.6573 73.0684 30.2159L73.0688 27.5969L73.0628 22.2365C73.0616 21.6961 73.0227 19.9254 73.1227 19.5026C71.7115 19.4609 70.228 19.5019 68.8109 19.4951C68.8109 19.2729 68.8003 19.0641 68.8542 18.8484Z" fill="#4D545C"/>
<path d="M12.0937 18.8473C13.1957 18.8044 14.4092 18.8297 15.5169 18.8326L20.7643 18.8382L20.7384 19.5078C19.2895 19.4874 17.8404 19.4816 16.3914 19.4903C15.766 19.4909 14.9781 19.5186 14.3658 19.4855C14.3904 21.1848 14.3695 22.9458 14.3619 24.6486C14.8588 24.6122 15.4732 24.6274 15.9832 24.6272C16.891 24.6256 17.7988 24.6297 18.7065 24.6391L18.7007 25.2265C17.2815 25.2241 15.7644 25.2495 14.3572 25.2201C14.3901 25.9319 14.3666 26.8337 14.366 27.561C14.3684 28.6957 14.4015 29.9959 14.3572 31.1177L20.8943 31.1283C20.897 31.3973 20.8941 31.541 20.948 31.8044C18.0556 31.7755 14.9715 31.7773 12.0757 31.8132C12.1292 31.2875 12.1074 30.4581 12.1075 29.9073L12.1077 21.6852C12.1075 20.77 12.128 19.7513 12.0937 18.8473Z" fill="#4D545C"/>
<path fill-rule="evenodd" clip-rule="evenodd" d="M34.2591 18.831C35.1957 18.8176 36.1836 18.8236 37.1256 18.8304C38.2319 18.8621 39.2521 18.7361 40.3488 18.9831C43.1235 19.6074 44.0963 23.0088 42.1708 25.0403C41.0387 26.2343 38.984 26.2174 37.4821 26.212C37.1176 26.2132 36.4293 26.2309 36.0939 26.1856L36.0965 29.8532C36.0962 30.4841 36.0793 31.1897 36.1127 31.8132L33.7435 31.8005C33.7901 30.9525 33.7574 29.7842 33.7576 28.9156V22.4059C33.7574 21.3096 33.7167 19.9124 33.7753 18.8425C33.9365 18.8373 34.0978 18.8336 34.2591 18.831ZM36.1002 23.4603C36.1003 24.1066 36.1166 24.8482 36.0827 25.4857C37.5435 25.3115 39.127 25.8621 40.2465 24.7749C41.1339 23.5828 41.2857 20.9938 40.0343 19.9819C39.0761 19.207 37.228 19.6359 36.097 19.4814L36.1002 23.4603Z" fill="#4D545C"/>
<path d="M45.8229 18.844C48.6342 18.751 51.6667 18.8763 54.5106 18.8298C54.4804 19.1013 54.4831 19.2289 54.4953 19.5028C53.944 19.4583 52.8311 19.4891 52.229 19.4888C50.8489 19.4807 49.4688 19.4867 48.0888 19.5067C48.1372 21.1235 48.0991 23.0074 48.0896 24.6419C49.3158 24.5717 51.1496 24.631 52.425 24.6348C52.4179 24.8318 52.4328 25.0269 52.4442 25.2237C51.0008 25.1984 49.5255 25.2559 48.094 25.2222C48.1093 25.9797 48.0935 26.799 48.0931 27.5612C48.0958 28.7336 48.114 29.9486 48.0872 31.1174L54.6703 31.1278C54.6659 31.3893 54.6786 31.5494 54.7053 31.8104C53.6877 31.7808 52.5635 31.8033 51.5388 31.8037L45.8008 31.8081L45.8069 22.9574L45.8032 20.3356C45.802 19.9311 45.7816 19.2182 45.8229 18.844Z" fill="#4D545C"/>
<path d="M3.85884 18.6442C5.29088 18.6457 6.65549 18.5132 7.92575 19.3899C9.27827 20.3235 9.54184 22.6293 8.62437 23.9403C7.99192 24.8439 7.11694 25.2551 6.03256 25.4279C6.85368 25.8595 7.46869 27.0387 7.97226 27.8192C8.81095 29.12 9.63514 30.4301 10.4447 31.7492C9.62432 31.7719 8.73586 31.8087 7.92251 31.7572C7.49311 31.1159 7.05563 30.3341 6.65223 29.6657L4.20469 25.6267C3.79969 25.6184 3.39445 25.6161 2.98935 25.62C2.89147 25.5484 2.91712 25.1065 2.91257 24.9663C3.99881 24.885 5.13986 25.073 6.09983 24.3579C7.14398 23.5801 7.12096 20.9386 6.42059 20.0193C5.67501 19.0408 3.45068 19.4833 2.28122 19.3357C2.22326 23.4311 2.26292 27.6635 2.26846 31.7708C1.51041 31.7441 0.799881 31.7927 0.00562356 31.7484C0.0796186 28.5974 -0.0304146 25.3955 0.0127611 22.2394C0.0287282 21.0721 0.0416723 19.8023 0 18.6396L3.85884 18.6442Z" fill="#4D545C"/>
<path fill-rule="evenodd" clip-rule="evenodd" d="M36.5278 0.00597623C37.2546 0.00537797 37.9678 -0.0256103 38.6868 0.0596163C41.8944 0.439863 41.9788 5.02763 38.8451 5.61028C38.7356 5.63067 38.6539 5.57941 38.5642 5.64489C38.6899 5.7627 39.1616 6.18126 39.2254 6.26716C39.8471 7.104 40.3552 8.06321 40.9624 8.91131C41.4669 7.92894 42.368 6.6931 43.0074 5.78396C43.3932 5.23616 45.5786 5.44237 46.2791 5.4286C46.2059 6.21253 46.2518 8.01749 46.2566 8.85594C46.2676 10.7497 46.2193 12.7467 46.2756 14.6281C45.9187 14.5739 44.5541 14.5882 44.1951 14.6246C44.2038 12.235 44.1801 9.81076 44.212 7.42691C43.9342 7.77403 43.5095 8.57703 43.2635 8.98723C42.9043 9.58653 42.4301 10.3219 42.1401 10.9462C41.5436 10.9507 40.696 10.996 40.11 10.9072C39.8932 10.8744 39.6147 10.2734 39.4875 10.0453C39.4305 9.93753 39.3421 9.8013 39.2741 9.69709C38.806 8.98092 38.4022 8.1871 37.9168 7.48639C37.9681 8.34993 37.9492 9.32223 37.948 10.1922C37.9388 11.6688 37.9434 13.1457 37.9618 14.6222C37.3666 14.5742 36.4881 14.6012 35.8716 14.6041C35.7778 11.9146 35.9389 9.1489 35.867 6.4536C35.8561 6.04072 35.8226 5.63256 35.8141 5.21988C36.6016 5.21956 37.6689 5.30531 38.378 4.86495C39.3773 4.24434 39.3557 2.05855 38.8244 1.20531C38.2811 0.332667 36.3543 0.82648 35.418 0.631272L35.4033 0.628028C35.3247 2.21605 35.3718 4.09839 35.375 5.70112C35.3784 7.40639 35.3362 9.26759 35.3884 10.9609C34.7863 10.942 33.9986 10.9345 33.4013 10.9611C33.4566 10.1671 33.4156 8.81351 33.4152 7.98948L33.4132 2.27487C33.4131 1.94054 33.3907 0.18896 33.4496 0.00770655C34.4756 0.00182719 35.5017 0.00119875 36.5278 0.00597623ZM45.912 5.72254C45.4764 5.68255 44.1537 5.6757 43.6909 5.70286C43.2034 5.99284 42.9684 6.45389 42.6622 6.91992C42.1535 7.69389 41.686 8.49451 41.1815 9.27187C41.4239 9.68368 41.6723 10.092 41.9269 10.4965C42.2928 9.78503 42.8245 8.95922 43.2538 8.27109C43.6371 7.65589 44.1412 6.68323 44.5572 6.11878C44.5969 7.08443 44.5579 8.15176 44.5611 9.12457L44.5634 12.4522C44.565 12.9003 44.5965 13.7948 44.5572 14.2132L45.9144 14.2113C45.8857 13.6376 45.8938 12.9959 45.9025 12.4193C45.9355 10.1957 45.8542 7.94275 45.912 5.72254ZM36.942 5.89644C36.8327 5.78916 36.4077 5.81515 36.2386 5.819C36.2964 7.10074 36.2512 8.70793 36.2518 10.0099C36.2525 11.3109 36.2958 12.9232 36.2363 14.2044L37.6062 14.2068C37.5711 13.5618 37.5888 12.8677 37.5891 12.2169L37.5874 8.99437C37.5866 8.35791 37.6111 7.60155 37.5383 6.97746C37.5133 6.76236 37.1083 6.05979 36.942 5.89644Z" fill="#4D545C"/>
<path d="M72.4764 10.7794C73.1764 10.7794 79.3493 10.7165 79.6443 10.8231L79.6769 10.8938L79.6389 10.9739C78.3745 11.0274 76.8237 10.9893 75.5412 10.9896L48.1813 10.9883C48.0369 10.9872 47.4793 10.9994 47.3837 10.9393L47.3553 10.7753L72.4764 10.7794Z" fill="#4D545C"/>
<path d="M0.18428 10.7792C1.32923 10.7261 2.93192 10.7785 4.1106 10.7785L25.5227 10.7796C27.5097 10.7805 29.4983 10.7813 31.4852 10.7749C31.6337 10.7744 31.864 10.7671 31.9734 10.8666L31.9749 10.9782C29.2867 11.0156 26.54 10.9887 23.8482 10.9888L1.08729 10.9931C0.857537 10.995 0.22768 11.0323 0.0845696 10.8917L0.109227 10.7835C0.134197 10.7818 0.159274 10.7803 0.18428 10.7792Z" fill="#4D545C"/>
</g>
</svg>
