<svg preserveAspectRatio="none" overflow="visible" style="display: block;" width="10" height="10" viewBox="0 0 10 10" fill="none" xmlns="http://www.w3.org/2000/svg">
<g id="TrendUp">
<path id="vector-element" d="M9.53125 2.1875V4.6875C9.53125 4.81182 9.48186 4.93105 9.39396 5.01896C9.30605 5.10686 9.18682 5.15625 9.0625 5.15625C8.93818 5.15625 8.81895 5.10686 8.73104 5.01896C8.64314 4.93105 8.59375 4.81182 8.59375 4.6875V3.32031L5.64414 6.27031C5.60059 6.31401 5.54885 6.34869 5.49187 6.37235C5.43489 6.396 5.3738 6.40818 5.31211 6.40818C5.25042 6.40818 5.18933 6.396 5.13235 6.37235C5.07537 6.34869 5.02363 6.31401 4.98008 6.27031L3.75 5.03906L1.26914 7.51914C1.18108 7.6072 1.06165 7.65667 0.937109 7.65667C0.812574 7.65667 0.693138 7.6072 0.605078 7.51914C0.517018 7.43108 0.467546 7.31165 0.467546 7.18711C0.467546 7.06257 0.517018 6.94314 0.605078 6.85508L3.41758 4.04258C3.46113 3.99888 3.51287 3.96421 3.56985 3.94055C3.62683 3.91689 3.68792 3.90471 3.74961 3.90471C3.8113 3.90471 3.87239 3.91689 3.92937 3.94055C3.98635 3.96421 4.03809 3.99888 4.08164 4.04258L5.3125 5.27344L7.92969 2.65625H6.5625C6.43818 2.65625 6.31895 2.60686 6.23104 2.51896C6.14314 2.43105 6.09375 2.31182 6.09375 2.1875C6.09375 2.06318 6.14314 1.94395 6.23104 1.85604C6.31895 1.76814 6.43818 1.71875 6.5625 1.71875H9.0625C9.18682 1.71875 9.30605 1.76814 9.39396 1.85604C9.48186 1.94395 9.53125 2.06318 9.53125 2.1875Z" fill="#6A7077"/>
</g>
</svg>
