<svg preserveAspectRatio="none" overflow="visible" style="display: block;" width="10" height="10" viewBox="0 0 10 10" fill="none" xmlns="http://www.w3.org/2000/svg">
<g id="Sparkle">
<path id="vector-element" d="M8.125 5.625C8.12579 5.75242 8.08708 5.87695 8.01419 5.98145C7.9413 6.08596 7.83781 6.16532 7.71797 6.20859L5.70039 6.95078L4.9582 8.9668C4.91425 9.0862 4.83473 9.18925 4.73038 9.26204C4.62602 9.33483 4.50184 9.37385 4.37461 9.37385C4.24737 9.37385 4.1232 9.33483 4.01884 9.26204C3.91449 9.18925 3.83497 9.0862 3.79102 8.9668L3.04687 6.95313L1.03047 6.21094C0.911066 6.16699 0.808018 6.08747 0.735229 5.98311C0.66244 5.87875 0.623412 5.75458 0.623412 5.62734C0.623412 5.50011 0.66244 5.37594 0.735229 5.27158C0.808018 5.16722 0.911066 5.0877 1.03047 5.04375L3.04805 4.30156L3.79023 2.28555C3.83419 2.16614 3.91371 2.0631 4.01806 1.99031C4.12242 1.91752 4.24659 1.87849 4.37383 1.87849C4.50106 1.87849 4.62524 1.91752 4.72959 1.99031C4.83395 2.0631 4.91347 2.16614 4.95742 2.28555L5.69961 4.30313L7.71562 5.04531C7.83528 5.08798 7.93882 5.16657 8.0121 5.27033C8.08538 5.3741 8.12481 5.49797 8.125 5.625ZM5.9375 1.875H6.5625V2.5C6.5625 2.58288 6.59542 2.66237 6.65403 2.72097C6.71263 2.77958 6.79212 2.8125 6.875 2.8125C6.95788 2.8125 7.03737 2.77958 7.09597 2.72097C7.15458 2.66237 7.1875 2.58288 7.1875 2.5V1.875H7.8125C7.89538 1.875 7.97487 1.84208 8.03347 1.78347C8.09208 1.72487 8.125 1.64538 8.125 1.5625C8.125 1.47962 8.09208 1.40013 8.03347 1.34153C7.97487 1.28292 7.89538 1.25 7.8125 1.25H7.1875V0.625C7.1875 0.54212 7.15458 0.462634 7.09597 0.404029C7.03737 0.345424 6.95788 0.3125 6.875 0.3125C6.79212 0.3125 6.71263 0.345424 6.65403 0.404029C6.59542 0.462634 6.5625 0.54212 6.5625 0.625V1.25H5.9375C5.85462 1.25 5.77513 1.28292 5.71653 1.34153C5.65792 1.40013 5.625 1.47962 5.625 1.5625C5.625 1.64538 5.65792 1.72487 5.71653 1.78347C5.77513 1.84208 5.85462 1.875 5.9375 1.875ZM9.375 3.125H9.0625V2.8125C9.0625 2.72962 9.02958 2.65013 8.97097 2.59153C8.91237 2.53292 8.83288 2.5 8.75 2.5C8.66712 2.5 8.58763 2.53292 8.52903 2.59153C8.47042 2.65013 8.4375 2.72962 8.4375 2.8125V3.125H8.125C8.04212 3.125 7.96263 3.15792 7.90403 3.21653C7.84542 3.27513 7.8125 3.35462 7.8125 3.4375C7.8125 3.52038 7.84542 3.59987 7.90403 3.65847C7.96263 3.71708 8.04212 3.75 8.125 3.75H8.4375V4.0625C8.4375 4.14538 8.47042 4.22487 8.52903 4.28347C8.58763 4.34208 8.66712 4.375 8.75 4.375C8.83288 4.375 8.91237 4.34208 8.97097 4.28347C9.02958 4.22487 9.0625 4.14538 9.0625 4.0625V3.75H9.375C9.45788 3.75 9.53737 3.71708 9.59597 3.65847C9.65458 3.59987 9.6875 3.52038 9.6875 3.4375C9.6875 3.35462 9.65458 3.27513 9.59597 3.21653C9.53737 3.15792 9.45788 3.125 9.375 3.125Z" fill="#0070FF"/>
</g>
</svg>
